<svg width="512" height="512" viewBox="0 0 512 512" fill="none" xmlns="http://www.w3.org/2000/svg">
<path d="M217.479 76.6192C105.901 104.704 23.2694 206.085 23.2694 326.847C23.2694 341.493 24.4853 355.854 26.8204 369.834C9.65482 335.237 0 296.223 0 254.943C0 125.926 94.3139 19.0306 217.479 0C217.479 0 230.387 2.69149 236.274 7.4704C246.347 15.6472 249.834 25.3029 249.698 38.3096C249.566 50.992 245.841 60.87 236.274 69.1488C230.432 74.2034 217.479 76.6192 217.479 76.6192Z" fill="url(#paint0_linear_151_225)"/>
<path d="M213.228 76.8298C138.151 98.5518 83.2339 168.06 83.2339 250.449C83.2339 350.224 163.773 431.108 263.124 431.108C325.643 431.108 378.23 399.076 408.629 350.465C433.964 353.005 453.754 374.66 453.754 400.998C453.754 408.029 452.906 415.488 451.199 422.719C404.1 477.401 334.503 512 256.859 512C156.104 512 68.8985 453.74 26.8216 368.935C24.4865 354.956 23.2705 340.595 23.2705 325.948C23.2705 206.725 103.809 106.393 213.228 76.8298Z" fill="url(#paint1_linear_151_225)"/>
<path d="M439.432 267.526H494.681C504.893 267.526 513.097 276.11 511.88 286.292C505.604 338.806 483.536 386.443 450.582 424.273C452.699 416.288 453.752 407.928 453.752 400.099C453.752 372.053 431.313 349.317 403.633 349.317H237.168C177.854 349.317 136.931 301.028 136.931 241.461V183.938H218.803V267.526H245.223V133.605H328.455V267.526H356.2V76.9808H439.432V267.526Z" fill="url(#paint2_linear_151_225)"/>
<defs>
<linearGradient id="paint0_linear_151_225" x1="124.851" y1="0" x2="124.851" y2="369.834" gradientUnits="userSpaceOnUse">
<stop stop-color="var(--color-teal-600)" />
<stop offset="1" stop-color="var(--color-gulf-stream-900)"/>
</linearGradient>
<linearGradient id="paint1_linear_151_225" x1="122.165" y1="160.12" x2="403.316" y2="402.508" gradientUnits="userSpaceOnUse">
<stop stop-color="var(--color-gulf-stream-900)"/>
<stop offset="0.713926" stop-color="var(--color-teal-600)"/>
<stop offset="1" stop-color="var(--color-gulf-stream-950)"/>
</linearGradient>
<linearGradient id="paint2_linear_151_225" x1="225.086" y1="173.602" x2="448.455" y2="400.495" gradientUnits="userSpaceOnUse">
<stop offset="0.134615" stop-color="var(--color-gulf-stream-900)"/>
<stop offset="0.623659" stop-color="var(--color-teal-600)"/>
<stop offset="0.894231" stop-color="var(--color-gulf-stream-900)"/>
</linearGradient>
</defs>
</svg>
